<mxfile host="app.diagrams.net" modified="2022-01-05T20:56:12.936Z" agent="5.0 (Windows NT 10.0; Win64; x64) AppleWebKit/537.36 (KHTML, like Gecko) Chrome/96.0.4664.110 Safari/537.36" etag="kPmRqZBk54OTE3ARCimE" version="16.2.2" type="github">
  <diagram name="Page-1" id="74b105a0-9070-1c63-61bc-23e55f88626e">
    <mxGraphModel dx="1896" dy="1016" grid="1" gridSize="10" guides="1" tooltips="1" connect="1" arrows="1" fold="1" page="1" pageScale="1.5" pageWidth="1169" pageHeight="826" background="none" math="0" shadow="0">
      <root>
        <mxCell id="0" style=";html=1;" />
        <mxCell id="1" style=";html=1;" parent="0" />
        <mxCell id="10b056a9c633e61c-30" value="Menahem" style="text;strokeColor=none;fillColor=none;html=1;fontSize=24;fontStyle=1;verticalAlign=middle;align=center;" parent="1" vertex="1">
          <mxGeometry x="40" y="40" width="1590" height="40" as="geometry" />
        </mxCell>
        <mxCell id="aSnJ4fY48YkKkDWAcXU_-2" value="" style="whiteSpace=wrap;html=1;aspect=fixed;" vertex="1" parent="1">
          <mxGeometry x="980" y="130" width="620" height="620" as="geometry" />
        </mxCell>
        <mxCell id="aSnJ4fY48YkKkDWAcXU_-6" value="" style="group" vertex="1" connectable="0" parent="1">
          <mxGeometry x="1140" y="840" width="110" height="150" as="geometry" />
        </mxCell>
        <mxCell id="aSnJ4fY48YkKkDWAcXU_-4" value="" style="shape=cylinder3;whiteSpace=wrap;html=1;boundedLbl=1;backgroundOutline=1;size=15;" vertex="1" parent="aSnJ4fY48YkKkDWAcXU_-6">
          <mxGeometry width="110" height="150" as="geometry" />
        </mxCell>
        <mxCell id="aSnJ4fY48YkKkDWAcXU_-5" value="" style="dashed=0;outlineConnect=0;html=1;align=center;labelPosition=center;verticalLabelPosition=bottom;verticalAlign=top;shape=mxgraph.weblogos.mongodb" vertex="1" parent="aSnJ4fY48YkKkDWAcXU_-6">
          <mxGeometry x="34.40000000000009" y="50" width="41.2" height="86.2" as="geometry" />
        </mxCell>
        <mxCell id="aSnJ4fY48YkKkDWAcXU_-7" value="" style="sketch=0;outlineConnect=0;fontColor=#232F3E;gradientColor=none;fillColor=#232F3D;strokeColor=none;dashed=0;verticalLabelPosition=bottom;verticalAlign=top;align=center;html=1;fontSize=12;fontStyle=0;aspect=fixed;pointerEvents=1;shape=mxgraph.aws4.traditional_server;" vertex="1" parent="1">
          <mxGeometry x="1630" y="322.5" width="95.19" height="165" as="geometry" />
        </mxCell>
        <mxCell id="aSnJ4fY48YkKkDWAcXU_-8" value="" style="shape=image;html=1;verticalAlign=top;verticalLabelPosition=bottom;labelBackgroundColor=#ffffff;imageAspect=0;aspect=fixed;image=https://cdn0.iconfinder.com/data/icons/font-awesome-brands-vol-2/512/react-128.png" vertex="1" parent="1">
          <mxGeometry x="90" y="670" width="128" height="128" as="geometry" />
        </mxCell>
        <mxCell id="aSnJ4fY48YkKkDWAcXU_-1" value="" style="whiteSpace=wrap;html=1;aspect=fixed;" vertex="1" parent="1">
          <mxGeometry x="120" y="180" width="470" height="470" as="geometry" />
        </mxCell>
        <mxCell id="aSnJ4fY48YkKkDWAcXU_-102" value="" style="edgeStyle=orthogonalEdgeStyle;rounded=0;orthogonalLoop=1;jettySize=auto;html=1;fontSize=12;" edge="1" parent="1" source="aSnJ4fY48YkKkDWAcXU_-9" target="aSnJ4fY48YkKkDWAcXU_-101">
          <mxGeometry relative="1" as="geometry" />
        </mxCell>
        <mxCell id="aSnJ4fY48YkKkDWAcXU_-104" value="" style="edgeStyle=orthogonalEdgeStyle;rounded=0;orthogonalLoop=1;jettySize=auto;html=1;fontSize=12;" edge="1" parent="1" source="aSnJ4fY48YkKkDWAcXU_-9" target="aSnJ4fY48YkKkDWAcXU_-103">
          <mxGeometry relative="1" as="geometry" />
        </mxCell>
        <mxCell id="aSnJ4fY48YkKkDWAcXU_-106" value="" style="edgeStyle=orthogonalEdgeStyle;rounded=0;orthogonalLoop=1;jettySize=auto;html=1;fontSize=12;" edge="1" parent="1" source="aSnJ4fY48YkKkDWAcXU_-9" target="aSnJ4fY48YkKkDWAcXU_-105">
          <mxGeometry relative="1" as="geometry" />
        </mxCell>
        <mxCell id="aSnJ4fY48YkKkDWAcXU_-109" value="" style="edgeStyle=orthogonalEdgeStyle;rounded=0;orthogonalLoop=1;jettySize=auto;html=1;fontSize=12;" edge="1" parent="1" source="aSnJ4fY48YkKkDWAcXU_-9" target="aSnJ4fY48YkKkDWAcXU_-108">
          <mxGeometry relative="1" as="geometry" />
        </mxCell>
        <mxCell id="aSnJ4fY48YkKkDWAcXU_-9" value="posts" style="swimlane;startSize=50;fontSize=12;" vertex="1" parent="1">
          <mxGeometry x="150" y="200" width="130" height="120" as="geometry" />
        </mxCell>
        <mxCell id="aSnJ4fY48YkKkDWAcXU_-81" value="" style="edgeStyle=orthogonalEdgeStyle;rounded=0;orthogonalLoop=1;jettySize=auto;html=1;fontSize=12;" edge="1" parent="1" source="aSnJ4fY48YkKkDWAcXU_-11" target="aSnJ4fY48YkKkDWAcXU_-80">
          <mxGeometry relative="1" as="geometry" />
        </mxCell>
        <mxCell id="aSnJ4fY48YkKkDWAcXU_-83" value="" style="edgeStyle=orthogonalEdgeStyle;rounded=0;orthogonalLoop=1;jettySize=auto;html=1;fontSize=12;" edge="1" parent="1" source="aSnJ4fY48YkKkDWAcXU_-11" target="aSnJ4fY48YkKkDWAcXU_-82">
          <mxGeometry relative="1" as="geometry" />
        </mxCell>
        <mxCell id="aSnJ4fY48YkKkDWAcXU_-85" value="" style="edgeStyle=orthogonalEdgeStyle;rounded=0;orthogonalLoop=1;jettySize=auto;html=1;fontSize=12;" edge="1" parent="1" source="aSnJ4fY48YkKkDWAcXU_-11" target="aSnJ4fY48YkKkDWAcXU_-84">
          <mxGeometry relative="1" as="geometry" />
        </mxCell>
        <mxCell id="aSnJ4fY48YkKkDWAcXU_-87" value="" style="edgeStyle=orthogonalEdgeStyle;rounded=0;orthogonalLoop=1;jettySize=auto;html=1;fontSize=12;" edge="1" parent="1" source="aSnJ4fY48YkKkDWAcXU_-11" target="aSnJ4fY48YkKkDWAcXU_-86">
          <mxGeometry relative="1" as="geometry" />
        </mxCell>
        <mxCell id="aSnJ4fY48YkKkDWAcXU_-92" value="" style="edgeStyle=orthogonalEdgeStyle;rounded=0;orthogonalLoop=1;jettySize=auto;html=1;fontSize=12;" edge="1" parent="1" source="aSnJ4fY48YkKkDWAcXU_-11" target="aSnJ4fY48YkKkDWAcXU_-91">
          <mxGeometry relative="1" as="geometry" />
        </mxCell>
        <mxCell id="aSnJ4fY48YkKkDWAcXU_-94" value="" style="edgeStyle=orthogonalEdgeStyle;rounded=0;orthogonalLoop=1;jettySize=auto;html=1;fontSize=12;" edge="1" parent="1" source="aSnJ4fY48YkKkDWAcXU_-11">
          <mxGeometry relative="1" as="geometry">
            <mxPoint x="1210" y="510" as="targetPoint" />
          </mxGeometry>
        </mxCell>
        <mxCell id="aSnJ4fY48YkKkDWAcXU_-11" value="pet" style="swimlane;startSize=50;fontSize=12;" vertex="1" parent="1">
          <mxGeometry x="300" y="200" width="130" height="120" as="geometry" />
        </mxCell>
        <mxCell id="aSnJ4fY48YkKkDWAcXU_-67" value="" style="edgeStyle=orthogonalEdgeStyle;rounded=0;orthogonalLoop=1;jettySize=auto;html=1;fontSize=12;" edge="1" parent="1" source="aSnJ4fY48YkKkDWAcXU_-12" target="aSnJ4fY48YkKkDWAcXU_-66">
          <mxGeometry relative="1" as="geometry" />
        </mxCell>
        <mxCell id="aSnJ4fY48YkKkDWAcXU_-69" value="" style="edgeStyle=orthogonalEdgeStyle;rounded=0;orthogonalLoop=1;jettySize=auto;html=1;fontSize=12;" edge="1" parent="1" source="aSnJ4fY48YkKkDWAcXU_-12" target="aSnJ4fY48YkKkDWAcXU_-68">
          <mxGeometry relative="1" as="geometry" />
        </mxCell>
        <mxCell id="aSnJ4fY48YkKkDWAcXU_-72" value="" style="edgeStyle=orthogonalEdgeStyle;rounded=0;orthogonalLoop=1;jettySize=auto;html=1;fontSize=12;" edge="1" parent="1" source="aSnJ4fY48YkKkDWAcXU_-12" target="aSnJ4fY48YkKkDWAcXU_-71">
          <mxGeometry relative="1" as="geometry" />
        </mxCell>
        <mxCell id="aSnJ4fY48YkKkDWAcXU_-77" value="" style="edgeStyle=orthogonalEdgeStyle;rounded=0;orthogonalLoop=1;jettySize=auto;html=1;fontSize=12;" edge="1" parent="1" source="aSnJ4fY48YkKkDWAcXU_-12" target="aSnJ4fY48YkKkDWAcXU_-76">
          <mxGeometry relative="1" as="geometry" />
        </mxCell>
        <mxCell id="aSnJ4fY48YkKkDWAcXU_-89" value="" style="edgeStyle=orthogonalEdgeStyle;rounded=0;orthogonalLoop=1;jettySize=auto;html=1;fontSize=12;" edge="1" parent="1" source="aSnJ4fY48YkKkDWAcXU_-12" target="aSnJ4fY48YkKkDWAcXU_-88">
          <mxGeometry relative="1" as="geometry" />
        </mxCell>
        <mxCell id="aSnJ4fY48YkKkDWAcXU_-12" value="user" style="swimlane;startSize=50;fontSize=12;" vertex="1" parent="1">
          <mxGeometry x="440" y="200" width="130" height="120" as="geometry" />
        </mxCell>
        <mxCell id="aSnJ4fY48YkKkDWAcXU_-34" value="" style="edgeStyle=orthogonalEdgeStyle;rounded=0;orthogonalLoop=1;jettySize=auto;html=1;fontSize=12;" edge="1" parent="1" source="aSnJ4fY48YkKkDWAcXU_-13" target="aSnJ4fY48YkKkDWAcXU_-33">
          <mxGeometry relative="1" as="geometry">
            <Array as="points">
              <mxPoint x="1185" y="400" />
            </Array>
          </mxGeometry>
        </mxCell>
        <mxCell id="aSnJ4fY48YkKkDWAcXU_-37" value="" style="edgeStyle=orthogonalEdgeStyle;rounded=0;orthogonalLoop=1;jettySize=auto;html=1;fontSize=12;" edge="1" parent="1" source="aSnJ4fY48YkKkDWAcXU_-13" target="aSnJ4fY48YkKkDWAcXU_-36">
          <mxGeometry relative="1" as="geometry" />
        </mxCell>
        <mxCell id="aSnJ4fY48YkKkDWAcXU_-39" value="" style="edgeStyle=orthogonalEdgeStyle;rounded=0;orthogonalLoop=1;jettySize=auto;html=1;fontSize=12;" edge="1" parent="1" source="aSnJ4fY48YkKkDWAcXU_-13" target="aSnJ4fY48YkKkDWAcXU_-38">
          <mxGeometry relative="1" as="geometry" />
        </mxCell>
        <mxCell id="aSnJ4fY48YkKkDWAcXU_-41" value="" style="edgeStyle=orthogonalEdgeStyle;rounded=0;orthogonalLoop=1;jettySize=auto;html=1;fontSize=12;" edge="1" parent="1" source="aSnJ4fY48YkKkDWAcXU_-13" target="aSnJ4fY48YkKkDWAcXU_-40">
          <mxGeometry relative="1" as="geometry" />
        </mxCell>
        <mxCell id="aSnJ4fY48YkKkDWAcXU_-47" value="" style="edgeStyle=orthogonalEdgeStyle;rounded=0;orthogonalLoop=1;jettySize=auto;html=1;fontSize=12;" edge="1" parent="1" source="aSnJ4fY48YkKkDWAcXU_-13" target="aSnJ4fY48YkKkDWAcXU_-46">
          <mxGeometry relative="1" as="geometry" />
        </mxCell>
        <mxCell id="aSnJ4fY48YkKkDWAcXU_-49" value="" style="edgeStyle=orthogonalEdgeStyle;rounded=0;orthogonalLoop=1;jettySize=auto;html=1;fontSize=12;startArrow=none;" edge="1" parent="1" source="aSnJ4fY48YkKkDWAcXU_-76" target="aSnJ4fY48YkKkDWAcXU_-48">
          <mxGeometry relative="1" as="geometry" />
        </mxCell>
        <mxCell id="aSnJ4fY48YkKkDWAcXU_-13" value="task" style="swimlane;startSize=50;fontSize=12;" vertex="1" parent="1">
          <mxGeometry x="150" y="355" width="130" height="120" as="geometry" />
        </mxCell>
        <mxCell id="aSnJ4fY48YkKkDWAcXU_-21" value="" style="edgeStyle=orthogonalEdgeStyle;rounded=0;orthogonalLoop=1;jettySize=auto;html=1;fontSize=12;" edge="1" parent="1" source="aSnJ4fY48YkKkDWAcXU_-14" target="aSnJ4fY48YkKkDWAcXU_-20">
          <mxGeometry relative="1" as="geometry" />
        </mxCell>
        <mxCell id="aSnJ4fY48YkKkDWAcXU_-32" style="edgeStyle=orthogonalEdgeStyle;rounded=0;orthogonalLoop=1;jettySize=auto;html=1;exitX=0.5;exitY=1;exitDx=0;exitDy=0;fontSize=12;entryX=0.5;entryY=0;entryDx=0;entryDy=0;" edge="1" parent="1" source="aSnJ4fY48YkKkDWAcXU_-20" target="aSnJ4fY48YkKkDWAcXU_-59">
          <mxGeometry relative="1" as="geometry">
            <mxPoint x="870" y="869" as="targetPoint" />
          </mxGeometry>
        </mxCell>
        <mxCell id="aSnJ4fY48YkKkDWAcXU_-20" value="get api/image/pet/:id" style="swimlane;startSize=50;fontSize=12;" vertex="1" collapsed="1" parent="1">
          <mxGeometry x="1440" y="200" width="150" height="50" as="geometry">
            <mxRectangle x="1130" y="475" width="130" height="120" as="alternateBounds" />
          </mxGeometry>
        </mxCell>
        <mxCell id="aSnJ4fY48YkKkDWAcXU_-63" style="edgeStyle=orthogonalEdgeStyle;rounded=0;orthogonalLoop=1;jettySize=auto;html=1;exitX=0.5;exitY=1;exitDx=0;exitDy=0;entryX=0.5;entryY=0;entryDx=0;entryDy=0;fontSize=12;" edge="1" parent="1" source="aSnJ4fY48YkKkDWAcXU_-33" target="aSnJ4fY48YkKkDWAcXU_-56">
          <mxGeometry relative="1" as="geometry" />
        </mxCell>
        <mxCell id="aSnJ4fY48YkKkDWAcXU_-33" value="post api/task" style="swimlane;startSize=50;fontSize=12;" vertex="1" collapsed="1" parent="1">
          <mxGeometry x="1015" y="230" width="135" height="50" as="geometry">
            <mxRectangle x="1125" y="260" width="130" height="100" as="alternateBounds" />
          </mxGeometry>
        </mxCell>
        <mxCell id="aSnJ4fY48YkKkDWAcXU_-44" value="body: task info" style="text;strokeColor=none;fillColor=none;align=left;verticalAlign=middle;spacingLeft=4;spacingRight=4;overflow=hidden;points=[[0,0.5],[1,0.5]];portConstraint=eastwest;rotatable=0;fontSize=12;" vertex="1" parent="aSnJ4fY48YkKkDWAcXU_-33">
          <mxGeometry y="60" width="130" height="30" as="geometry" />
        </mxCell>
        <mxCell id="aSnJ4fY48YkKkDWAcXU_-53" value="" style="edgeStyle=orthogonalEdgeStyle;rounded=0;orthogonalLoop=1;jettySize=auto;html=1;fontSize=12;entryX=0.5;entryY=0;entryDx=0;entryDy=0;" edge="1" parent="1" source="aSnJ4fY48YkKkDWAcXU_-36" target="aSnJ4fY48YkKkDWAcXU_-56">
          <mxGeometry relative="1" as="geometry">
            <mxPoint x="578.9333333333334" y="930" as="targetPoint" />
          </mxGeometry>
        </mxCell>
        <mxCell id="aSnJ4fY48YkKkDWAcXU_-55" value="" style="edgeStyle=orthogonalEdgeStyle;rounded=0;orthogonalLoop=1;jettySize=auto;html=1;fontSize=12;entryX=0.5;entryY=0;entryDx=0;entryDy=0;" edge="1" parent="1" source="aSnJ4fY48YkKkDWAcXU_-38" target="aSnJ4fY48YkKkDWAcXU_-56">
          <mxGeometry relative="1" as="geometry">
            <mxPoint x="678.4000000000001" y="886.3900000000001" as="targetPoint" />
          </mxGeometry>
        </mxCell>
        <mxCell id="aSnJ4fY48YkKkDWAcXU_-38" value="get api/task/pet/:id" style="whiteSpace=wrap;html=1;fontStyle=1;startSize=50;" vertex="1" parent="1">
          <mxGeometry x="1310" y="160" width="120" height="50" as="geometry" />
        </mxCell>
        <mxCell id="aSnJ4fY48YkKkDWAcXU_-51" value="" style="edgeStyle=orthogonalEdgeStyle;rounded=0;orthogonalLoop=1;jettySize=auto;html=1;fontSize=12;entryX=0.5;entryY=0;entryDx=0;entryDy=0;" edge="1" parent="1" source="aSnJ4fY48YkKkDWAcXU_-40" target="aSnJ4fY48YkKkDWAcXU_-56">
          <mxGeometry relative="1" as="geometry">
            <mxPoint x="555.0666666666666" y="886.3900000000001" as="targetPoint" />
          </mxGeometry>
        </mxCell>
        <mxCell id="aSnJ4fY48YkKkDWAcXU_-40" value="&lt;span&gt;get api/task/:id&lt;/span&gt;" style="whiteSpace=wrap;html=1;fontStyle=1;startSize=50;" vertex="1" parent="1">
          <mxGeometry x="1020" y="162.5" width="130" height="47.5" as="geometry" />
        </mxCell>
        <mxCell id="aSnJ4fY48YkKkDWAcXU_-64" style="edgeStyle=orthogonalEdgeStyle;rounded=0;orthogonalLoop=1;jettySize=auto;html=1;exitX=0.5;exitY=1;exitDx=0;exitDy=0;fontSize=12;startArrow=none;" edge="1" parent="1" source="aSnJ4fY48YkKkDWAcXU_-68">
          <mxGeometry relative="1" as="geometry">
            <mxPoint x="740" y="760" as="targetPoint" />
          </mxGeometry>
        </mxCell>
        <mxCell id="aSnJ4fY48YkKkDWAcXU_-46" value="put api/task/:id" style="whiteSpace=wrap;html=1;fontStyle=1;startSize=50;" vertex="1" parent="1">
          <mxGeometry x="1170" y="230" width="120" height="50" as="geometry" />
        </mxCell>
        <mxCell id="aSnJ4fY48YkKkDWAcXU_-65" style="edgeStyle=orthogonalEdgeStyle;rounded=0;orthogonalLoop=1;jettySize=auto;html=1;exitX=0.5;exitY=1;exitDx=0;exitDy=0;fontSize=12;" edge="1" parent="1" source="aSnJ4fY48YkKkDWAcXU_-48">
          <mxGeometry relative="1" as="geometry">
            <mxPoint x="740" y="760" as="targetPoint" />
          </mxGeometry>
        </mxCell>
        <mxCell id="aSnJ4fY48YkKkDWAcXU_-48" value="delete api/task/:id" style="whiteSpace=wrap;html=1;fontStyle=1;startSize=50;" vertex="1" parent="1">
          <mxGeometry x="1315" y="232.5" width="110" height="45" as="geometry" />
        </mxCell>
        <mxCell id="aSnJ4fY48YkKkDWAcXU_-14" value="image" style="swimlane;startSize=50;fontSize=12;" vertex="1" parent="1">
          <mxGeometry x="300" y="355" width="160" height="120" as="geometry" />
        </mxCell>
        <mxCell id="aSnJ4fY48YkKkDWAcXU_-57" value="" style="group" vertex="1" connectable="0" parent="1">
          <mxGeometry x="640" y="760" width="200" height="190" as="geometry" />
        </mxCell>
        <mxCell id="aSnJ4fY48YkKkDWAcXU_-56" value="tasks collection" style="swimlane;fontSize=12;" vertex="1" parent="aSnJ4fY48YkKkDWAcXU_-57">
          <mxGeometry width="200" height="190" as="geometry">
            <mxRectangle width="120" height="23" as="alternateBounds" />
          </mxGeometry>
        </mxCell>
        <mxCell id="aSnJ4fY48YkKkDWAcXU_-59" value="images collection" style="swimlane;fontSize=12;" vertex="1" parent="1">
          <mxGeometry x="870" y="760" width="200" height="200" as="geometry" />
        </mxCell>
        <mxCell id="aSnJ4fY48YkKkDWAcXU_-60" value="users collection" style="swimlane;fontSize=12;" vertex="1" parent="1">
          <mxGeometry x="870" y="980" width="200" height="200" as="geometry" />
        </mxCell>
        <mxCell id="aSnJ4fY48YkKkDWAcXU_-61" value="posts collection" style="swimlane;fontSize=12;" vertex="1" parent="1">
          <mxGeometry x="420" y="980" width="200" height="200" as="geometry" />
        </mxCell>
        <mxCell id="aSnJ4fY48YkKkDWAcXU_-62" value="pets collection" style="swimlane;fontSize=12;" vertex="1" parent="1">
          <mxGeometry x="420" y="760" width="200" height="200" as="geometry" />
        </mxCell>
        <mxCell id="aSnJ4fY48YkKkDWAcXU_-36" value="get api/task/user/:id" style="whiteSpace=wrap;html=1;fontStyle=1;startSize=50;" vertex="1" parent="1">
          <mxGeometry x="1170" y="160" width="120" height="50" as="geometry" />
        </mxCell>
        <mxCell id="aSnJ4fY48YkKkDWAcXU_-73" style="edgeStyle=orthogonalEdgeStyle;rounded=0;orthogonalLoop=1;jettySize=auto;html=1;exitX=0.5;exitY=1;exitDx=0;exitDy=0;entryX=0.5;entryY=0;entryDx=0;entryDy=0;fontSize=12;" edge="1" parent="1" source="aSnJ4fY48YkKkDWAcXU_-66" target="aSnJ4fY48YkKkDWAcXU_-60">
          <mxGeometry relative="1" as="geometry" />
        </mxCell>
        <mxCell id="aSnJ4fY48YkKkDWAcXU_-66" value="get api/user/:id" style="whiteSpace=wrap;html=1;fontStyle=1;startSize=50;" vertex="1" parent="1">
          <mxGeometry x="1006.25" y="310" width="157.5" height="50" as="geometry" />
        </mxCell>
        <mxCell id="aSnJ4fY48YkKkDWAcXU_-74" style="edgeStyle=orthogonalEdgeStyle;rounded=0;orthogonalLoop=1;jettySize=auto;html=1;exitX=0.5;exitY=1;exitDx=0;exitDy=0;fontSize=12;entryX=0.5;entryY=0;entryDx=0;entryDy=0;startArrow=none;" edge="1" parent="1" source="aSnJ4fY48YkKkDWAcXU_-88" target="aSnJ4fY48YkKkDWAcXU_-60">
          <mxGeometry relative="1" as="geometry">
            <mxPoint x="970" y="980" as="targetPoint" />
          </mxGeometry>
        </mxCell>
        <mxCell id="aSnJ4fY48YkKkDWAcXU_-68" value="put api/user/:id" style="whiteSpace=wrap;html=1;fontStyle=1;startSize=50;" vertex="1" parent="1">
          <mxGeometry x="1180" y="312.5" width="120" height="45" as="geometry" />
        </mxCell>
        <mxCell id="aSnJ4fY48YkKkDWAcXU_-70" value="" style="edgeStyle=orthogonalEdgeStyle;rounded=0;orthogonalLoop=1;jettySize=auto;html=1;exitX=0.5;exitY=1;exitDx=0;exitDy=0;fontSize=12;endArrow=none;" edge="1" parent="1" source="aSnJ4fY48YkKkDWAcXU_-46" target="aSnJ4fY48YkKkDWAcXU_-68">
          <mxGeometry relative="1" as="geometry">
            <mxPoint x="740" y="760" as="targetPoint" />
            <mxPoint x="1230" y="280" as="sourcePoint" />
          </mxGeometry>
        </mxCell>
        <mxCell id="aSnJ4fY48YkKkDWAcXU_-75" style="edgeStyle=orthogonalEdgeStyle;rounded=0;orthogonalLoop=1;jettySize=auto;html=1;exitX=0.5;exitY=1;exitDx=0;exitDy=0;fontSize=12;entryX=0.5;entryY=0;entryDx=0;entryDy=0;" edge="1" parent="1" source="aSnJ4fY48YkKkDWAcXU_-71" target="aSnJ4fY48YkKkDWAcXU_-60">
          <mxGeometry relative="1" as="geometry">
            <mxPoint x="970" y="980" as="targetPoint" />
          </mxGeometry>
        </mxCell>
        <mxCell id="aSnJ4fY48YkKkDWAcXU_-71" value="delete api/user/:id" style="whiteSpace=wrap;html=1;fontStyle=1;startSize=50;" vertex="1" parent="1">
          <mxGeometry x="1330" y="305" width="120" height="45" as="geometry" />
        </mxCell>
        <mxCell id="aSnJ4fY48YkKkDWAcXU_-79" style="edgeStyle=orthogonalEdgeStyle;rounded=0;orthogonalLoop=1;jettySize=auto;html=1;exitX=0.5;exitY=1;exitDx=0;exitDy=0;entryX=0.5;entryY=0;entryDx=0;entryDy=0;fontSize=12;" edge="1" parent="1" source="aSnJ4fY48YkKkDWAcXU_-76" target="aSnJ4fY48YkKkDWAcXU_-60">
          <mxGeometry relative="1" as="geometry" />
        </mxCell>
        <mxCell id="aSnJ4fY48YkKkDWAcXU_-95" style="edgeStyle=orthogonalEdgeStyle;rounded=0;orthogonalLoop=1;jettySize=auto;html=1;exitX=0.5;exitY=1;exitDx=0;exitDy=0;entryX=0.5;entryY=0;entryDx=0;entryDy=0;fontSize=12;" edge="1" parent="1" source="aSnJ4fY48YkKkDWAcXU_-76" target="aSnJ4fY48YkKkDWAcXU_-62">
          <mxGeometry relative="1" as="geometry">
            <Array as="points">
              <mxPoint x="1066" y="700" />
              <mxPoint x="520" y="700" />
            </Array>
          </mxGeometry>
        </mxCell>
        <mxCell id="aSnJ4fY48YkKkDWAcXU_-76" value="get api/user/pet/:id" style="whiteSpace=wrap;html=1;fontStyle=1;startSize=50;" vertex="1" parent="1">
          <mxGeometry x="1006.25" y="370" width="120" height="50" as="geometry" />
        </mxCell>
        <mxCell id="aSnJ4fY48YkKkDWAcXU_-78" value="" style="edgeStyle=orthogonalEdgeStyle;rounded=0;orthogonalLoop=1;jettySize=auto;html=1;fontSize=12;endArrow=none;" edge="1" parent="1" source="aSnJ4fY48YkKkDWAcXU_-13" target="aSnJ4fY48YkKkDWAcXU_-76">
          <mxGeometry relative="1" as="geometry">
            <mxPoint x="280" y="415.0666666666666" as="sourcePoint" />
            <mxPoint x="1370" y="277.5" as="targetPoint" />
          </mxGeometry>
        </mxCell>
        <mxCell id="aSnJ4fY48YkKkDWAcXU_-96" style="edgeStyle=orthogonalEdgeStyle;rounded=0;orthogonalLoop=1;jettySize=auto;html=1;exitX=0.5;exitY=1;exitDx=0;exitDy=0;entryX=0.5;entryY=0;entryDx=0;entryDy=0;fontSize=12;" edge="1" parent="1" source="aSnJ4fY48YkKkDWAcXU_-80" target="aSnJ4fY48YkKkDWAcXU_-62">
          <mxGeometry relative="1" as="geometry" />
        </mxCell>
        <mxCell id="aSnJ4fY48YkKkDWAcXU_-80" value="get api/pet/:id" style="whiteSpace=wrap;html=1;fontStyle=1;startSize=50;" vertex="1" parent="1">
          <mxGeometry x="1006.25" y="440" width="120" height="50" as="geometry" />
        </mxCell>
        <mxCell id="aSnJ4fY48YkKkDWAcXU_-97" style="edgeStyle=orthogonalEdgeStyle;rounded=0;orthogonalLoop=1;jettySize=auto;html=1;exitX=0.5;exitY=1;exitDx=0;exitDy=0;entryX=0.5;entryY=0;entryDx=0;entryDy=0;fontSize=12;" edge="1" parent="1" source="aSnJ4fY48YkKkDWAcXU_-82" target="aSnJ4fY48YkKkDWAcXU_-60">
          <mxGeometry relative="1" as="geometry" />
        </mxCell>
        <mxCell id="aSnJ4fY48YkKkDWAcXU_-82" value="get api/pet/user/:id" style="whiteSpace=wrap;html=1;fontStyle=1;startSize=50;" vertex="1" parent="1">
          <mxGeometry x="1150" y="435" width="120" height="60" as="geometry" />
        </mxCell>
        <mxCell id="aSnJ4fY48YkKkDWAcXU_-98" style="edgeStyle=orthogonalEdgeStyle;rounded=0;orthogonalLoop=1;jettySize=auto;html=1;exitX=0.5;exitY=1;exitDx=0;exitDy=0;entryX=0.5;entryY=0;entryDx=0;entryDy=0;fontSize=12;startArrow=none;" edge="1" parent="1" source="aSnJ4fY48YkKkDWAcXU_-105" target="aSnJ4fY48YkKkDWAcXU_-62">
          <mxGeometry relative="1" as="geometry" />
        </mxCell>
        <mxCell id="aSnJ4fY48YkKkDWAcXU_-84" value="put api/pet/:id" style="whiteSpace=wrap;html=1;fontStyle=1;startSize=50;" vertex="1" parent="1">
          <mxGeometry x="1300" y="430" width="120" height="60" as="geometry" />
        </mxCell>
        <mxCell id="aSnJ4fY48YkKkDWAcXU_-99" style="edgeStyle=orthogonalEdgeStyle;rounded=0;orthogonalLoop=1;jettySize=auto;html=1;exitX=0.5;exitY=1;exitDx=0;exitDy=0;fontSize=12;" edge="1" parent="1" source="aSnJ4fY48YkKkDWAcXU_-86">
          <mxGeometry relative="1" as="geometry">
            <mxPoint x="520" y="760" as="targetPoint" />
          </mxGeometry>
        </mxCell>
        <mxCell id="aSnJ4fY48YkKkDWAcXU_-86" value="delete api/pet/:id" style="whiteSpace=wrap;html=1;fontStyle=1;startSize=50;" vertex="1" parent="1">
          <mxGeometry x="1430" y="427.5" width="120" height="60" as="geometry" />
        </mxCell>
        <mxCell id="aSnJ4fY48YkKkDWAcXU_-88" value="post api/user" style="whiteSpace=wrap;html=1;fontStyle=1;startSize=50;" vertex="1" parent="1">
          <mxGeometry x="1170" y="372.5" width="120" height="45" as="geometry" />
        </mxCell>
        <mxCell id="aSnJ4fY48YkKkDWAcXU_-90" value="" style="edgeStyle=orthogonalEdgeStyle;rounded=0;orthogonalLoop=1;jettySize=auto;html=1;exitX=0.5;exitY=1;exitDx=0;exitDy=0;fontSize=12;entryX=0.5;entryY=0;entryDx=0;entryDy=0;endArrow=none;" edge="1" parent="1" source="aSnJ4fY48YkKkDWAcXU_-68" target="aSnJ4fY48YkKkDWAcXU_-88">
          <mxGeometry relative="1" as="geometry">
            <mxPoint x="970" y="980" as="targetPoint" />
            <mxPoint x="1240" y="357.5" as="sourcePoint" />
          </mxGeometry>
        </mxCell>
        <mxCell id="aSnJ4fY48YkKkDWAcXU_-91" value="post api/pet" style="whiteSpace=wrap;html=1;fontStyle=1;startSize=50;" vertex="1" parent="1">
          <mxGeometry x="1005" y="510" width="120" height="60" as="geometry" />
        </mxCell>
        <mxCell id="aSnJ4fY48YkKkDWAcXU_-116" style="edgeStyle=orthogonalEdgeStyle;rounded=0;orthogonalLoop=1;jettySize=auto;html=1;exitX=0.5;exitY=1;exitDx=0;exitDy=0;fontSize=12;" edge="1" parent="1" source="aSnJ4fY48YkKkDWAcXU_-101" target="aSnJ4fY48YkKkDWAcXU_-61">
          <mxGeometry relative="1" as="geometry" />
        </mxCell>
        <mxCell id="aSnJ4fY48YkKkDWAcXU_-101" value="get api/post/:id" style="whiteSpace=wrap;html=1;fontStyle=1;startSize=50;" vertex="1" parent="1">
          <mxGeometry x="1005" y="580" width="120" height="60" as="geometry" />
        </mxCell>
        <mxCell id="aSnJ4fY48YkKkDWAcXU_-113" style="edgeStyle=orthogonalEdgeStyle;rounded=0;orthogonalLoop=1;jettySize=auto;html=1;exitX=0.5;exitY=1;exitDx=0;exitDy=0;entryX=0.5;entryY=0;entryDx=0;entryDy=0;fontSize=12;" edge="1" parent="1" source="aSnJ4fY48YkKkDWAcXU_-103" target="aSnJ4fY48YkKkDWAcXU_-61">
          <mxGeometry relative="1" as="geometry" />
        </mxCell>
        <mxCell id="aSnJ4fY48YkKkDWAcXU_-103" value="get api/post/user/:id&lt;br&gt;get post for user" style="whiteSpace=wrap;html=1;fontStyle=1;startSize=50;" vertex="1" parent="1">
          <mxGeometry x="1140" y="580" width="120" height="60" as="geometry" />
        </mxCell>
        <mxCell id="aSnJ4fY48YkKkDWAcXU_-114" style="edgeStyle=orthogonalEdgeStyle;rounded=0;orthogonalLoop=1;jettySize=auto;html=1;exitX=0.5;exitY=1;exitDx=0;exitDy=0;fontSize=12;" edge="1" parent="1" source="aSnJ4fY48YkKkDWAcXU_-105">
          <mxGeometry relative="1" as="geometry">
            <mxPoint x="520" y="980" as="targetPoint" />
          </mxGeometry>
        </mxCell>
        <mxCell id="aSnJ4fY48YkKkDWAcXU_-105" value="post api/post" style="whiteSpace=wrap;html=1;fontStyle=1;startSize=50;" vertex="1" parent="1">
          <mxGeometry x="1280" y="580" width="120" height="60" as="geometry" />
        </mxCell>
        <mxCell id="aSnJ4fY48YkKkDWAcXU_-107" value="" style="edgeStyle=orthogonalEdgeStyle;rounded=0;orthogonalLoop=1;jettySize=auto;html=1;exitX=0.5;exitY=1;exitDx=0;exitDy=0;entryX=0.5;entryY=0;entryDx=0;entryDy=0;fontSize=12;endArrow=none;" edge="1" parent="1" source="aSnJ4fY48YkKkDWAcXU_-84" target="aSnJ4fY48YkKkDWAcXU_-105">
          <mxGeometry relative="1" as="geometry">
            <mxPoint x="1359.9999999999995" y="490" as="sourcePoint" />
            <mxPoint x="520" y="760" as="targetPoint" />
          </mxGeometry>
        </mxCell>
        <mxCell id="aSnJ4fY48YkKkDWAcXU_-115" style="edgeStyle=orthogonalEdgeStyle;rounded=0;orthogonalLoop=1;jettySize=auto;html=1;exitX=0.5;exitY=1;exitDx=0;exitDy=0;fontSize=12;" edge="1" parent="1" source="aSnJ4fY48YkKkDWAcXU_-108">
          <mxGeometry relative="1" as="geometry">
            <mxPoint x="520" y="980" as="targetPoint" />
          </mxGeometry>
        </mxCell>
        <mxCell id="aSnJ4fY48YkKkDWAcXU_-108" value="delete api/post/:id" style="whiteSpace=wrap;html=1;fontStyle=1;startSize=50;" vertex="1" parent="1">
          <mxGeometry x="1430" y="580" width="120" height="60" as="geometry" />
        </mxCell>
      </root>
    </mxGraphModel>
  </diagram>
</mxfile>
